<?xml version="1.0" encoding="utf-8"?>
<svg viewBox="0 0 32 32" xmlns="http://www.w3.org/2000/svg">
  <path class="cls-1" d="M 1.86 26.762 C 7.353 26.75 12.847 26.75 18.338 26.762 C 18.665 26.763 18.93 27.027 18.933 27.355 C 18.933 28.243 18.558 29.98 16.552 29.98 L 3.648 29.98 C 1.641 29.98 1.269 28.243 1.269 27.355 C 1.27 27.028 1.534 26.764 1.86 26.762 Z M 15.692 12.408 C 20.275 15.936 21.908 14.544 24.533 13.25 C 26.546 12.26 27.331 11.32 29.774 12.31 L 29.774 8.714 L 15.698 8.714 L 15.698 12.408 L 15.692 12.408 Z M 24.635 7.633 L 25.556 4.227 C 25.612 3.983 25.774 3.778 25.999 3.666 L 29.765 1.742 C 30.342 1.44 31.03 1.875 31.003 2.526 C 30.991 2.813 30.837 3.073 30.592 3.22 L 27.118 4.985 L 26.387 7.633 L 26.453 7.427 L 30.468 7.427 C 30.76 7.433 30.994 7.669 30.997 7.96 L 30.997 14.835 C 30.997 19.3 28.565 22.765 24.006 23.108 L 24.006 29.389 L 27.546 29.389 C 27.844 29.389 28.083 29.861 28.083 30.157 C 28.083 30.455 27.841 30.929 27.546 30.929 L 19.819 30.929 L 19.935 30.804 C 20.308 30.389 20.602 29.909 20.804 29.389 L 21.723 29.389 L 21.723 23.128 C 21.481 23.128 21.237 23.098 20.994 23.071 C 20.928 22.855 20.841 22.646 20.736 22.446 C 20.851 22.302 20.953 22.147 21.043 21.986 C 21.5 21.147 21.589 20.156 21.285 19.248 C 21.04 18.498 20.642 17.807 20.116 17.218 C 19.001 15.933 17.038 14.624 14.406 13.909 L 14.406 7.96 C 14.406 7.664 14.647 7.424 14.943 7.424 L 24.696 7.424 L 24.635 7.628 L 24.635 7.633 Z M 17.563 21.531 L 2.833 21.531 C 1.892 21.531 1.13 20.768 1.13 19.828 C 1.13 17.395 5.958 15.641 10.016 15.602 C 17.997 15.522 21.578 21.529 17.559 21.529 L 17.563 21.531 Z M 14.157 17.604 C 14.864 17.603 15.307 18.365 14.955 18.978 C 14.605 19.591 13.723 19.593 13.367 18.982 C 13.286 18.842 13.243 18.684 13.243 18.522 C 13.243 18.016 13.652 17.607 14.157 17.604 Z M 6.176 17.67 C 6.881 17.664 7.329 18.425 6.981 19.04 C 6.633 19.654 5.75 19.661 5.392 19.052 C 5.309 18.911 5.266 18.75 5.266 18.587 C 5.266 18.082 5.675 17.671 6.181 17.67 L 6.176 17.67 Z M 10.136 16.798 C 10.842 16.798 11.284 17.561 10.931 18.172 C 10.577 18.784 9.696 18.784 9.342 18.172 C 9.263 18.033 9.219 17.874 9.219 17.713 C 9.219 17.208 9.63 16.798 10.136 16.798 Z M 18.89 23.866 C 18.915 23.908 18.928 23.955 18.928 24.003 C 18.928 24.035 18.928 24.069 18.928 24.103 C 18.928 24.137 18.928 24.171 18.928 24.199 C 18.928 24.249 18.915 24.297 18.89 24.339 C 18.755 24.928 18.214 25.701 16.549 25.701 L 3.648 25.701 C 1.985 25.701 1.443 24.929 1.308 24.339 C 1.282 24.297 1.27 24.249 1.269 24.199 C 1.269 24.171 1.269 24.137 1.269 24.103 C 1.266 24.07 1.266 24.036 1.269 24.003 C 1.27 23.955 1.282 23.908 1.308 23.866 C 1.443 23.275 1.986 22.505 3.648 22.505 L 10.333 22.505 L 12.807 25.049 L 15.241 22.505 L 16.552 22.505 C 18.215 22.505 18.759 23.275 18.892 23.866 L 18.89 23.866 Z" style="fill-rule: evenodd;" transform="matrix(0.9999999999999999, 0, 0, 0.9999999999999999, 0, 0)"/>
</svg>