<?xml version="1.0" encoding="utf-8"?>
<svg viewBox="0 0 500 500" xmlns="http://www.w3.org/2000/svg">
  <path class="cls-1" d="M 77.594 381.672 C 144.998 381.532 212.392 381.532 279.775 381.672 C 283.796 381.69 287.056 384.934 287.088 388.956 C 287.088 399.851 282.492 421.165 257.865 421.165 L 99.535 421.165 C 74.908 421.165 70.341 399.851 70.341 388.956 C 70.359 384.952 73.591 381.704 77.594 381.672 Z M 247.327 205.55 C 303.536 248.835 323.597 231.761 355.806 215.879 C 380.492 203.73 390.135 192.208 420.105 204.357 L 420.105 160.237 L 247.387 160.237 L 247.387 205.55 L 247.327 205.55 Z M 357.059 146.953 L 368.343 105.162 C 369.033 102.174 371.026 99.655 373.777 98.295 L 419.986 74.684 C 427.069 70.971 435.514 76.314 435.192 84.305 C 435.048 87.81 433.147 91.007 430.135 92.803 L 387.507 114.475 L 378.552 146.953 L 379.358 144.446 L 428.613 144.446 C 432.191 144.512 435.073 147.404 435.121 150.983 L 435.121 235.342 C 435.121 290.119 405.268 332.626 349.328 336.836 L 349.328 413.911 L 392.761 413.911 C 396.433 413.911 399.358 419.702 399.358 423.344 C 399.358 426.986 396.374 432.807 392.761 432.807 L 297.954 432.807 L 299.387 431.285 C 303.957 426.183 307.567 420.296 310.044 413.911 L 321.328 413.911 L 321.328 337.074 C 318.342 337.074 315.358 336.716 312.372 336.388 C 311.558 333.738 310.499 331.17 309.208 328.717 C 310.62 326.946 311.877 325.057 312.97 323.075 C 318.579 312.778 319.663 300.614 315.955 289.492 C 312.949 280.28 308.059 271.79 301.596 264.567 C 287.924 248.805 263.835 232.745 231.536 223.969 L 231.536 150.983 C 231.536 147.341 234.491 144.386 238.132 144.386 L 357.805 144.386 L 357.059 146.894 L 357.059 146.953 Z M 270.283 317.492 L 89.534 317.492 C 77.994 317.492 68.639 308.137 68.639 296.597 C 68.639 266.746 127.893 245.222 177.685 244.746 C 275.596 243.76 319.537 317.463 270.223 317.463 L 270.283 317.492 Z M 228.491 269.313 C 237.154 269.289 242.596 278.653 238.283 286.166 C 233.971 293.683 223.142 293.71 218.79 286.221 C 217.793 284.504 217.268 282.551 217.268 280.567 C 217.268 274.363 222.289 269.331 228.491 269.313 Z M 130.55 270.119 C 139.213 270.05 144.702 279.384 140.431 286.922 C 136.159 294.459 125.332 294.546 120.938 287.077 C 119.923 285.349 119.386 283.378 119.386 281.372 C 119.386 275.169 124.407 270.136 130.61 270.119 L 130.55 270.119 Z M 179.148 259.402 C 187.811 259.402 193.225 268.782 188.894 276.284 C 184.563 283.785 173.732 283.785 169.402 276.284 C 168.413 274.572 167.894 272.632 167.894 270.656 C 167.894 264.441 172.933 259.402 179.148 259.402 Z M 286.551 346.149 C 286.856 346.657 287.02 347.233 287.03 347.821 C 287.03 348.209 287.03 348.626 287.03 349.044 C 287.03 349.462 287.03 349.88 287.03 350.239 C 287.02 350.839 286.856 351.424 286.551 351.941 C 284.91 359.164 278.253 368.656 257.835 368.656 L 99.535 368.656 C 79.116 368.656 72.49 359.194 70.818 351.941 C 70.517 351.424 70.352 350.839 70.341 350.239 C 70.341 349.88 70.341 349.462 70.341 349.044 C 70.314 348.638 70.314 348.23 70.341 347.821 C 70.352 347.233 70.517 346.657 70.818 346.149 C 72.49 338.896 79.147 329.433 99.535 329.433 L 181.566 329.433 L 211.924 360.657 L 241.774 329.433 L 257.865 329.433 C 278.283 329.433 284.94 338.896 286.581 346.149 L 286.551 346.149 Z" style="fill-rule: evenodd; fill: rgb(207, 10, 10);" transform="matrix(1, 0, 0, 1, -5.684341886080802e-14, 0)"/>
</svg>