<?xml version="1.0" encoding="utf-8"?>
<svg viewBox="-102.305 -63.894 495.588 117.013" xmlns="http://www.w3.org/2000/svg">
  <text style="fill: rgb(255, 255, 255); font-family: 'Segoe UI'; font-size: 57px; font-weight: 700; letter-spacing: 0.9px; white-space: pre;" transform="matrix(1.0021409988403323, 0, 0, 1.0303380489349365, -31.06925702289226, -8.429369732924172)" x="62.5" y="29.647">FlavorFusion</text>
  <text style="white-space: pre; fill: rgb(51, 51, 51); font-family: Arial, sans-serif; font-size: 28px;" x="155.955" y="43.865" transform="matrix(1, 0, 0, 1, 2.842170943040401e-14, 0)"> </text>
  <text style="white-space: pre; fill: rgb(51, 51, 51); font-family: Arial, sans-serif; font-size: 28px;" x="117.478" y="41.778" transform="matrix(1, 0, 0, 1, 2.842170943040401e-14, 0)"> </text>
  <text style="white-space: pre; fill: rgb(51, 51, 51); font-family: Arial, sans-serif; font-size: 28px;" x="19.824" y="61.279" transform="matrix(1, 0, 0, 1, 2.842170943040401e-14, 0)"> </text>
  <path class="cls-1" d="M -92.534 30.678 C -73.02 30.637 -53.51 30.637 -34.002 30.678 C -32.838 30.681 -31.895 31.621 -31.886 32.785 C -31.886 35.94 -33.217 42.11 -40.346 42.11 L -86.183 42.11 C -93.313 42.11 -94.635 35.94 -94.635 32.785 C -94.63 31.626 -93.695 30.686 -92.534 30.678 Z M -43.397 -20.311 C -27.125 -7.779 -21.316 -12.722 -11.992 -17.319 C -4.846 -20.837 -2.053 -24.173 6.622 -20.656 L 6.622 -33.428 L -43.38 -33.428 L -43.38 -20.311 L -43.397 -20.311 Z M -11.629 -37.273 L -8.364 -49.372 C -8.164 -50.238 -7.587 -50.966 -6.789 -51.361 L 6.588 -58.195 C 8.638 -59.271 11.085 -57.725 10.991 -55.41 C 10.947 -54.397 10.397 -53.47 9.525 -52.95 L -2.815 -46.676 L -5.408 -37.273 L -5.175 -38 L 9.086 -38 C 10.122 -37.983 10.954 -37.143 10.969 -36.108 L 10.969 -11.686 C 10.969 4.172 2.327 16.478 -13.867 17.696 L -13.867 40.009 L -1.294 40.009 C -0.23 40.009 0.616 41.687 0.616 42.739 C 0.616 43.795 -0.247 45.48 -1.294 45.48 L -28.739 45.48 L -28.326 45.039 C -27.003 43.562 -25.957 41.859 -25.241 40.009 L -21.973 40.009 L -21.973 17.764 C -22.838 17.764 -23.704 17.662 -24.566 17.567 C -24.803 16.8 -25.109 16.056 -25.482 15.346 C -25.072 14.834 -24.708 14.287 -24.393 13.712 C -22.769 10.731 -22.457 7.211 -23.529 3.99 C -24.4 1.323 -25.815 -1.134 -27.687 -3.225 C -31.644 -7.788 -38.618 -12.439 -47.968 -14.979 L -47.968 -36.108 C -47.968 -37.161 -47.111 -38.018 -46.059 -38.018 L -11.411 -38.018 L -11.629 -37.292 L -11.629 -37.273 Z M -36.751 12.097 L -89.078 12.097 C -92.419 12.097 -95.127 9.388 -95.127 6.047 C -95.127 -2.594 -77.971 -8.826 -63.558 -8.964 C -35.212 -9.251 -22.494 12.088 -36.767 12.088 L -36.751 12.097 Z M -48.85 -1.852 C -46.341 -1.857 -44.768 0.851 -46.015 3.028 C -47.262 5.204 -50.398 5.212 -51.657 3.044 C -51.947 2.548 -52.098 1.98 -52.098 1.406 C -52.098 -0.389 -50.646 -1.845 -48.85 -1.852 Z M -77.202 -1.618 C -74.694 -1.638 -73.108 1.063 -74.341 3.247 C -75.58 5.428 -78.714 5.455 -79.985 3.291 C -80.279 2.792 -80.437 2.221 -80.437 1.639 C -80.437 -0.157 -78.983 -1.613 -77.186 -1.618 L -77.202 -1.618 Z M -63.135 -4.72 C -60.627 -4.72 -59.061 -2.005 -60.313 0.166 C -61.567 2.339 -64.701 2.339 -65.957 0.166 C -66.242 -0.33 -66.393 -0.89 -66.393 -1.462 C -66.393 -3.262 -64.934 -4.72 -63.135 -4.72 Z M -32.039 20.393 C -31.953 20.54 -31.905 20.707 -31.903 20.878 C -31.903 20.99 -31.903 21.111 -31.903 21.231 C -31.903 21.352 -31.903 21.474 -31.903 21.577 C -31.905 21.75 -31.953 21.918 -32.039 22.069 C -32.518 24.16 -34.444 26.909 -40.354 26.909 L -86.183 26.909 C -92.093 26.909 -94.014 24.17 -94.496 22.069 C -94.584 21.918 -94.632 21.75 -94.635 21.577 C -94.635 21.474 -94.635 21.352 -94.635 21.231 C -94.642 21.112 -94.642 20.995 -94.635 20.878 C -94.632 20.707 -94.584 20.54 -94.496 20.393 C -94.014 18.292 -92.084 15.553 -86.183 15.553 L -62.434 15.553 L -53.648 24.591 L -45.004 15.553 L -40.346 15.553 C -34.435 15.553 -32.509 18.292 -32.032 20.393 L -32.039 20.393 Z" style="fill-rule: evenodd; fill: rgb(240, 0, 0);" transform="matrix(1, 0, 0, 1, 2.842170943040401e-14, 0)"/>
</svg>